<?xml version="1.0" encoding="UTF-8"?>
<svg version="1.1" xmlns="http://www.w3.org/2000/svg" width="505" height="505">
<path d="M0 0 C166.65 0 333.3 0 505 0 C505 166.65 505 333.3 505 505 C338.35 505 171.7 505 0 505 C0 338.35 0 171.7 0 0 Z " fill="#07A268" transform="translate(0,0)"/>
<path d="M0 0 C9.14752742 5.06138494 15.22493955 12.56003166 18.53125 22.51953125 C20.95342553 36.40146197 17.17887722 46.95215393 9.34765625 58.19140625 C8.53141873 59.3291816 7.7135926 60.46581827 6.89453125 61.6015625 C6.42337891 62.26043457 5.95222656 62.91930664 5.46679688 63.59814453 C2.19915733 68.16593643 -1.09565063 72.71352977 -4.39990234 77.25488281 C-7.14409834 81.03060739 -9.87425157 84.81644499 -12.60546875 88.6015625 C-13.68873072 90.10161404 -14.77206416 91.60161397 -15.85546875 93.1015625 C-16.39171875 93.8440625 -16.92796875 94.5865625 -17.48046875 95.3515625 C-40.77213542 127.6015625 -64.06380208 159.8515625 -87.35546875 192.1015625 C-87.89163818 192.84398193 -88.42780762 193.58640137 -88.98022461 194.35131836 C-90.06425291 195.852218 -91.14840017 197.35303172 -92.23266602 198.85375977 C-94.9313453 202.58930217 -97.62798187 206.32628504 -100.3203125 210.06640625 C-106.45303554 218.58076931 -112.63779664 227.05372452 -118.87255859 235.49365234 C-125.01466509 243.81658999 -131.06337558 252.20588465 -137.10546875 260.6015625 C-143.74400613 269.82601827 -150.40759971 279.0283785 -157.16796875 288.1640625 C-161.57049379 294.1168577 -165.91206991 300.10553279 -170.16796875 306.1640625 C-217.25353071 373.19321126 -217.25353071 373.19321126 -235.10546875 376.6015625 C-242.8426954 377.82969371 -249.37337236 375.36517544 -256.10546875 371.6015625 C-259.77613563 368.9009217 -262.93647252 365.86990031 -266.10546875 362.6015625 C-266.98976563 361.69148438 -267.8740625 360.78140625 -268.78515625 359.84375 C-274.21090434 354.13335035 -279.16760597 348.11539575 -283.98022461 341.8840332 C-287.08824532 337.8645177 -290.29809236 333.95830966 -293.60546875 330.1015625 C-297.79654598 325.2054304 -301.8138456 320.20079604 -305.76953125 315.11328125 C-309.46705652 310.37419957 -313.27053499 305.72989497 -317.10546875 301.1015625 C-321.91475541 295.29513298 -326.63733539 289.43371479 -331.2734375 283.48828125 C-334.00602548 279.98765818 -336.78192292 276.5297969 -339.60546875 273.1015625 C-343.48607353 268.38939956 -347.25993665 263.60151102 -351.01953125 258.79296875 C-353.83945331 255.19323585 -356.69832271 251.6316684 -359.60546875 248.1015625 C-362.99945696 243.98029111 -366.31714742 239.80702696 -369.60546875 235.6015625 C-373.56125328 230.54551157 -377.57419259 225.54426517 -381.65234375 220.5859375 C-389.24683654 211.34677748 -396.84298606 202.10513613 -404.10546875 192.6015625 C-404.85699219 191.64765625 -405.60851562 190.69375 -406.3828125 189.7109375 C-414.85308094 178.78333024 -419.36474575 169.60886288 -418.10546875 155.6015625 C-415.09069679 144.41722713 -408.38569487 136.90975181 -399.1875 130.203125 C-391.62751853 125.94780609 -381.46812889 126.4497862 -373.10546875 127.6015625 C-358.50749676 131.86198384 -347.48199535 146.06361183 -337.0637207 156.51293945 C-334.91535009 158.66668772 -332.76166181 160.81501476 -330.60742188 162.96289062 C-329.21712707 164.35384604 -327.82714239 165.74511153 -326.4375 167.13671875 C-325.8050386 167.76715591 -325.17257721 168.39759308 -324.52095032 169.0471344 C-321.47052834 172.11337489 -318.52974845 175.22521331 -315.70776367 178.50366211 C-311.73262407 183.10048906 -307.45464628 187.35995682 -303.13671875 191.6328125 C-302.29757935 192.46816528 -301.45843994 193.30351807 -300.59387207 194.16418457 C-297.93349975 196.81243336 -295.26990862 199.45740656 -292.60546875 202.1015625 C-289.09209602 205.58818851 -285.58214904 209.07821176 -282.07421875 212.5703125 C-281.27922974 213.35700317 -280.48424072 214.14369385 -279.66516113 214.95422363 C-275.47089989 219.13019951 -271.44748871 223.38200229 -267.61018372 227.88945007 C-260.3911191 236.10353082 -252.59307857 241.56253872 -241.6484375 242.90234375 C-232.55352091 243.40363837 -224.86884691 240.47694387 -217.98046875 234.6015625 C-213.64479536 230.4156298 -210.09761765 225.85081875 -206.58203125 220.96875 C-203.76379528 217.07534886 -200.7178412 213.3769507 -197.66796875 209.6640625 C-193.71921585 204.84261925 -189.82055349 199.99594204 -186.04296875 195.0390625 C-179.8576655 186.93279516 -173.45773467 179.00036564 -167.05859375 171.0625 C-162.74775433 165.70158431 -158.51312768 160.28392473 -154.29296875 154.8515625 C-153.68541748 154.06950439 -153.07786621 153.28744629 -152.4519043 152.48168945 C-151.84773682 151.70398193 -151.24356934 150.92627441 -150.62109375 150.125 C-143.74371367 141.27362596 -136.82800549 132.46535295 -129.73046875 123.7890625 C-125.26398155 118.32848136 -120.9246925 112.78950356 -116.66796875 107.1640625 C-111.65044394 100.53514762 -106.44332807 94.09306307 -101.12963867 87.69995117 C-96.81815241 82.50146173 -92.67392416 77.20319393 -88.5859375 71.828125 C-85.88184817 68.28723699 -83.08854795 64.82036097 -80.29296875 61.3515625 C-75.99866267 56.01872348 -71.80642758 50.61859724 -67.66796875 45.1640625 C-61.79526395 37.43306296 -55.72314846 29.88321894 -49.55859375 22.38378906 C-48.22431761 20.74732807 -46.91046391 19.09734368 -45.60546875 17.4375 C-33.54091234 2.23113202 -19.61247821 -9.01317997 0 0 Z " fill="#FCFCFA" transform="translate(450.10546875,54.3984375)"/>
<path d="M0 0 C0.33 0.99 0.66 1.98 1 3 C-0.29296875 5.05078125 -0.29296875 5.05078125 -2.1875 7.3125 C-4.33665738 9.9401974 -6.42135235 12.51370426 -8.25 15.375 C-11.79439252 20.69158879 -11.79439252 20.69158879 -15.6875 21.6875 C-16.450625 21.790625 -17.21375 21.89375 -18 22 C-16.625 20 -16.625 20 -15 18 C-14.34 18 -13.68 18 -13 18 C-12.7628125 17.45472656 -12.525625 16.90945313 -12.28125 16.34765625 C-10.67082426 13.39684567 -8.65847894 11.01295783 -6.5 8.4375 C-4.18760361 5.67088289 -2.00082301 3.00123452 0 0 Z " fill="#2F9365" transform="translate(248,403)"/>
<path d="M0 0 C0 3.3 0 6.6 0 10 C-3.3 10 -6.6 10 -10 10 C-1.50943396 0 -1.50943396 0 0 0 Z " fill="#E4EDE9" transform="translate(505,495)"/>
<path d="M0 0 C1 4 1 4 -0.07421875 5.96484375 C-0.60660156 6.61582031 -1.13898438 7.26679688 -1.6875 7.9375 C-2.24050781 8.62714844 -2.79351562 9.31679688 -3.36328125 10.02734375 C-3.90339844 10.67832031 -4.44351562 11.32929688 -5 12 C-6.175625 13.485 -6.175625 13.485 -7.375 15 C-7.91125 15.66 -8.4475 16.32 -9 17 C-9.99 16.67 -10.98 16.34 -12 16 C-8.04 10.72 -4.08 5.44 0 0 Z " fill="#249464" transform="translate(310,318)"/>
<path d="M0 0 C0.33 0.99 0.66 1.98 1 3 C0.3503125 3.5259375 0.3503125 3.5259375 -0.3125 4.0625 C-2.2373546 6.06144625 -2.2373546 6.06144625 -3.375 9.375 C-5.08746115 13.19510565 -6.82370197 15.3123632 -10 18 C-10.66 18 -11.32 18 -12 18 C-10.18633597 13.87235084 -7.50853382 10.37940795 -4.875 6.75 C-4.17310547 5.77546875 -4.17310547 5.77546875 -3.45703125 4.78125 C-2.30725718 3.18564517 -1.15397434 1.59256975 0 0 Z " fill="#2B9E6A" transform="translate(428,155)"/>
<path d="M0 0 C0.66 0.33 1.32 0.66 2 1 C-0.78387709 6.07648175 -4.40829416 10.4833069 -8 15 C-8.99 14.67 -9.98 14.34 -11 14 C-9.35504034 11.85349184 -7.70907674 9.70776711 -6.0625 7.5625 C-5.59392578 6.95083984 -5.12535156 6.33917969 -4.64257812 5.70898438 C-1.11328125 1.11328125 -1.11328125 1.11328125 0 0 Z " fill="#239562" transform="translate(341,276)"/>
<path d="M0 0 C0.66 0 1.32 0 2 0 C0.41332422 3.90285767 -2.13350481 6.33520982 -5.125 9.25 C-6.03507812 10.14203125 -6.94515625 11.0340625 -7.8828125 11.953125 C-8.58148438 12.62859375 -9.28015625 13.3040625 -10 14 C-10.66 13.67 -11.32 13.34 -12 13 C-10.18777319 11.02058257 -8.37523172 9.04145495 -6.5625 7.0625 C-6.04623047 6.49853516 -5.52996094 5.93457031 -4.99804688 5.35351562 C-1.11328125 1.11328125 -1.11328125 1.11328125 0 0 Z " fill="#D9EDE2" transform="translate(417,58)"/>
<path d="M0 0 C0 3.60573896 -0.81707462 4.41336566 -3 7.1875 C-3.556875 7.90292969 -4.11375 8.61835938 -4.6875 9.35546875 C-5.120625 9.89816406 -5.55375 10.44085938 -6 11 C-6.99 10.67 -7.98 10.34 -9 10 C-7.87970983 8.51726301 -6.75361382 7.03891114 -5.625 5.5625 C-4.99851562 4.73878906 -4.37203125 3.91507812 -3.7265625 3.06640625 C-2 1 -2 1 0 0 Z " fill="#1D9060" transform="translate(267,380)"/>
<path d="M0 0 C0.66 0.33 1.32 0.66 2 1 C0.21427748 2.83947337 -1.57802449 4.67157741 -3.375 6.5 C-3.88289063 7.02464844 -4.39078125 7.54929688 -4.9140625 8.08984375 C-6.23832604 9.43153181 -7.61605865 10.71995815 -9 12 C-9.66 12 -10.32 12 -11 12 C-9.49650623 8.33213607 -7.36271208 6.31089607 -4.375 3.75 C-3.14910156 2.69039062 -3.14910156 2.69039062 -1.8984375 1.609375 C-1.27195312 1.07828125 -0.64546875 0.5471875 0 0 Z " fill="#D0EEDC" transform="translate(49,186)"/>
<path d="M0 0 C0.33 0.99 0.66 1.98 1 3 C-0.43359375 5.48046875 -0.43359375 5.48046875 -2.4375 8.1875 C-3.09621094 9.08855469 -3.75492187 9.98960937 -4.43359375 10.91796875 C-4.95050781 11.60503906 -5.46742188 12.29210937 -6 13 C-6.99 12.67 -7.98 12.34 -9 12 C-6.03 8.04 -3.06 4.08 0 0 Z " fill="#2D9364" transform="translate(297,336)"/>
<path d="M0 0 C1.27310312 0.93441535 2.543388 1.87267111 3.8125 2.8125 C4.52019531 3.33457031 5.22789062 3.85664063 5.95703125 4.39453125 C7.78531393 5.83128877 9.39896688 7.31815763 11 9 C6.60618791 8.49785005 4.16580205 7.07786311 1 4 C0.359375 1.86328125 0.359375 1.86328125 0 0 Z " fill="#28925F" transform="translate(185,418)"/>
<path d="M0 0 C3.93548431 3.06093224 6.68116787 5.49115974 9 10 C8.01 10 7.02 10 6 10 C4.39453125 8.3203125 4.39453125 8.3203125 2.8125 6.125 C2.01779297 5.04605469 2.01779297 5.04605469 1.20703125 3.9453125 C0 2 0 2 0 0 Z " fill="#20955D" transform="translate(167,398)"/>
<path d="M0 0 C1.17539996 0.92652701 2.34010577 1.86663387 3.5 2.8125 C4.1496875 3.33457031 4.799375 3.85664063 5.46875 4.39453125 C7 6 7 6 7 9 C0.70535714 4.17857143 0.70535714 4.17857143 0 0 Z " fill="#22955E" transform="translate(177,410)"/>
<path d="M0 0 C0.33 1.32 0.66 2.64 1 4 C-0.98 4.99 -0.98 4.99 -3 6 C-3 6.66 -3 7.32 -3 8 C-3.66 8 -4.32 8 -5 8 C-3.62845496 5.04590299 -2.01136276 2.55991624 0 0 Z " fill="#2FA16C" transform="translate(452,122)"/>
<path d="M0 0 C0.33 1.32 0.66 2.64 1 4 C-0.98 4.99 -0.98 4.99 -3 6 C-3 6.66 -3 7.32 -3 8 C-3.66 7.67 -4.32 7.34 -5 7 C-3.35 4.69 -1.7 2.38 0 0 Z " fill="#2D9C67" transform="translate(392,205)"/>
<path d="M0 0 C0.66 0.99 1.32 1.98 2 3 C0.68 4.65 -0.64 6.3 -2 8 C-2.99 7.67 -3.98 7.34 -5 7 C-3.35 4.69 -1.7 2.38 0 0 Z " fill="#34976A" transform="translate(303,327)"/>
</svg>
